<?xml version="1.0" encoding="UTF-8" standalone="no"?>
<!-- Created by Vectric (http://www.vectric.com/) -->

<svg
   xmlns:dc="http://purl.org/dc/elements/1.1/"
   xmlns:cc="http://creativecommons.org/ns#"
   xmlns:rdf="http://www.w3.org/1999/02/22-rdf-syntax-ns#"
   xmlns:svg="http://www.w3.org/2000/svg"
   xmlns="http://www.w3.org/2000/svg"
   xmlns:sodipodi="http://sodipodi.sourceforge.net/DTD/sodipodi-0.dtd"
   xmlns:inkscape="http://www.inkscape.org/namespaces/inkscape"
   width="80.00000000mm"
   height="50.00000000mm"
   viewBox="0.00000000 0.00000000 80.00000000 50.00000000"
   id="svg2"
   version="1.1"
   sodipodi:docname="logoBackground.svg"
   inkscape:version="0.92.4 (5da689c313, 2019-01-14)">
  <metadata
     id="metadata3803">
    <rdf:RDF>
      <cc:Work
         rdf:about="">
        <dc:format>image/svg+xml</dc:format>
        <dc:type
           rdf:resource="http://purl.org/dc/dcmitype/StillImage" />
        <dc:title></dc:title>
      </cc:Work>
    </rdf:RDF>
  </metadata>
  <defs
     id="defs3801" />
  <sodipodi:namedview
     pagecolor="#ffffff"
     bordercolor="#666666"
     borderopacity="1"
     objecttolerance="10"
     gridtolerance="10"
     guidetolerance="10"
     inkscape:pageopacity="0"
     inkscape:pageshadow="2"
     inkscape:window-width="1920"
     inkscape:window-height="1017"
     id="namedview3799"
     showgrid="false"
     inkscape:zoom="4"
     inkscape:cx="175.77892"
     inkscape:cy="89.801611"
     inkscape:window-x="-8"
     inkscape:window-y="-8"
     inkscape:window-maximized="1"
     inkscape:current-layer="a182f1b5-b9f7-404a-b841-7ab8daf2775f" />
  <g
     inkscape:groupmode="layer"
     id="layer1"
     inkscape:label="Layer 2" />
  <g
     inkscape:groupmode="layer"
     id="a182f1b5-b9f7-404a-b841-7ab8daf2775f"
     inkscape:label="Layer 1"
     style="stroke:#000000;">
    <g
       id="g1046">
      <rect
         ry="4.0094428"
         y="5.3515625"
         x="17.793226"
         height="38.430729"
         width="43.98698"
         id="rect1015"
         style="opacity:1;fill:#401f4c;fill-opacity:1;stroke:none;stroke-width:0.27992916;stroke-miterlimit:4;stroke-dasharray:none" />
      <path
         inkscape:connector-curvature="0"
         id="path3759"
         d="m 36.812691,27.083063 c -0.341393,0 -0.404238,0.01215 -0.612351,0.117598 -0.260067,0.131775 -0.466708,0.345678 -0.621354,0.643072 -0.089,0.171155 -0.104498,0.252362 -0.105944,0.560439 -0.0014,0.303214 0.0137,0.39186 0.09588,0.558849 0.09325,0.189491 0.217299,0.351276 0.365501,0.479389 0.15291,0.132184 0.331485,0.228692 0.528655,0.283399 0.128156,0.03556 0.294798,0.05014 0.429599,0.03708 0.269006,-0.02607 0.497783,-0.101423 0.687567,-0.226187 0.197349,-0.12973 0.352955,-0.312905 0.467738,-0.551432 0.08895,-0.184824 0.105765,-0.275336 0.105944,-0.560967 1.77e-4,-0.283247 -0.01715,-0.377231 -0.103823,-0.562028 -0.143469,-0.30588 -0.309859,-0.482253 -0.605465,-0.642543 -0.236097,-0.128021 -0.275092,-0.136667 -0.631947,-0.136667 z"
         style="fill:#fffff1;fill-opacity:1;stroke:#000000;stroke-width:0.28701657;stroke-linecap:round;stroke-linejoin:round;stroke-opacity:1" />
      <path
         inkscape:connector-curvature="0"
         id="path3761"
         d="m 50.433169,28.244243 c 0,0 -5.65e-4,0.343834 -0.0013,0.807203 -4.04e-4,0.246793 -8.66e-4,0.527495 -0.0013,0.808218 -4.61e-4,0.280956 -9.24e-4,0.561932 -0.0013,0.808957 -7.61e-4,0.46352 -0.0013,0.8075 -0.0013,0.8075 0,0 0.109607,-0.07156 0.109607,-0.07156 0.06028,-0.03935 0.253756,-0.18894 0.429938,-0.332409 0.176182,-0.143467 0.410277,-0.333918 0.520209,-0.423222 0,0 0.199879,-0.162373 0.199879,-0.162373 0,0 0.420763,-0.358849 0.420763,-0.358849 0.113901,-0.09715 0.259077,-0.222858 0.402096,-0.347908 0.147557,-0.12902 0.292817,-0.257331 0.39906,-0.352816 0,0 0.380393,-0.341874 0.380393,-0.341874 0,0 0.02938,-0.04004 0.02938,-0.04004 0.01616,-0.02202 0.02389,-0.05738 0.01718,-0.07858 0,0 -0.0122,-0.03854 -0.0122,-0.03854 0,0 -0.68631,-0.523541 -0.68631,-0.523541 0,0 -0.114485,-0.0866 -0.114485,-0.0866 -0.06297,-0.04762 -0.203136,-0.153456 -0.311489,-0.235169 0,0 -0.197003,-0.148571 -0.197003,-0.148571 0,0 -0.463679,-0.328623 -0.463679,-0.328623 -0.255024,-0.180743 -0.60338,-0.422361 -0.774125,-0.536931 0,0 -0.310447,-0.20831 -0.310447,-0.20831 0,0 -0.06322,-0.02426 -0.06322,-0.02426 -0.05356,-0.02055 -0.05983,0.0026 -0.04106,0.15146 0,0 0.02216,0.175721 0.02216,0.175721 0,0 0.01217,0.270279 0.02432,0.540558 0.01217,0.270279 0.02433,0.540558 0.02433,0.540558"
         style="fill:#fffff1;fill-opacity:1;stroke:#000000;stroke-width:0.2870166;stroke-linecap:round;stroke-linejoin:round;stroke-opacity:1" />
      <path
         inkscape:connector-curvature="0"
         id="path3763"
         d="m 46.562853,37.665696 c 0,0 0.436335,0.157994 0.436335,0.157994 0,0 0.182246,-0.101584 0.182246,-0.101584 0.100241,-0.05586 0.358354,-0.206674 0.573597,-0.335119 0,0 0.391349,-0.233536 0.391349,-0.233536 0,0 0.02908,-8.91e-4 0.02908,-8.91e-4 0.016,-4.9e-4 0.06898,-0.03202 0.117741,-0.07007 0,0 0.08866,-0.06918 0.08866,-0.06918 0,0 0.05928,-0.460476 0.05928,-0.460476 0.01725,-0.13405 0.04104,-0.334961 0.06491,-0.545999 0.02122,-0.187676 0.04251,-0.383359 0.05932,-0.54715 0,0 0.06495,-0.632674 0.06495,-0.632674 0,0 -0.02603,-0.07807 -0.02603,-0.07807 0,0 -0.721547,0.475748 -0.721547,0.475748 -0.27491,0.18126 -0.510445,0.333697 -0.761813,0.491334 -0.230406,0.14449 -0.474113,0.293351 -0.773638,0.472778 -0.222985,0.133578 -0.476906,0.284097 -0.779304,0.462369 0,0 -0.594455,0.350447 -0.594455,0.350447 0,0 0.06775,0.065 0.06775,0.065 0,0 0.380394,0.149771 0.760786,0.299541 0.380393,0.149772 0.760787,0.299543 0.760787,0.299543"
         style="fill:#fffff1;fill-opacity:1;stroke:#000000;stroke-width:0.2870166;stroke-linecap:round;stroke-linejoin:round;stroke-opacity:1" />
      <path
         inkscape:connector-curvature="0"
         id="path3765"
         d="m 35.191102,31.655079 c 0,0 0.400414,0.289799 0.400414,0.289799 0,0 0.05563,0.0016 0.05563,0.0016 0.04372,0.0012 0.05023,-0.04341 0.03038,-0.208622 0,0 -0.02525,-0.210217 -0.02525,-0.210217 0,0 -1.74e-4,-0.32333 -3.47e-4,-0.646659 -1.75e-4,-0.323331 -3.49e-4,-0.64666 -3.49e-4,-0.64666 0,0 -0.261172,-0.252172 -0.261172,-0.252172 -0.143643,-0.138694 -0.31672,-0.338739 -0.384614,-0.444542 -0.134987,-0.21036 -0.267151,-0.590969 -0.282056,-0.812273 -0.0052,-0.0774 -0.02212,-0.140734 -0.03757,-0.140734 0,0 -0.02809,0 -0.02809,0 0,0 -0.279138,0.225232 -0.558277,0.450465 -0.279138,0.225232 -0.558277,0.450466 -0.558277,0.450466 0,0 -0.230408,0.200206 -0.230408,0.200206 -0.126725,0.110114 -0.255588,0.214617 -0.286362,0.232228 -0.03077,0.01761 -0.05596,0.04795 -0.05596,0.06742 0,0 0,0.03541 0,0.03541 0,0 0.512386,0.396382 0.512386,0.396382 0.133201,0.103044 0.295022,0.224966 0.451796,0.340921 0.174915,0.12937 0.343549,0.251314 0.459145,0.331325 0.219206,0.151725 0.578742,0.406273 0.798969,0.565663"
         style="fill:#fffff1;fill-opacity:1;stroke:#000000;stroke-width:0.2870166;stroke-linecap:round;stroke-linejoin:round;stroke-opacity:1" />
      <path
         inkscape:connector-curvature="0"
         id="path3767"
         d="m 38.133821,38.534878 c 0,0 1.61e-4,0.03003 1.61e-4,0.03003 8.9e-5,0.01651 0.0095,0.03003 0.0209,0.03003 0,0 0.02075,0 0.02075,0 0,0 0.830136,-0.355998 0.830136,-0.355998 0.226058,-0.09694 0.516665,-0.226026 0.803863,-0.35639 0.292864,-0.132935 0.582183,-0.2672 0.795896,-0.370074 0,0 0.769624,-0.370469 0.769624,-0.370469 0,0 -0.03484,-0.05637 -0.03484,-0.05637 0,0 -0.832287,-0.422956 -0.832287,-0.422956 -0.234244,-0.119039 -0.554943,-0.288737 -0.879981,-0.464686 -0.31015,-0.167891 -0.624252,-0.341475 -0.870961,-0.48217 0,0 -0.229664,-0.130976 -0.459328,-0.261951 -0.229664,-0.130976 -0.459327,-0.261951 -0.459327,-0.261951 0,0 -0.07572,-0.02403 -0.07572,-0.02403 -0.07029,-0.02232 -0.07382,-0.0073 -0.04919,0.209967 0,0 0.02653,0.233999 0.02653,0.233999 0,0 0.05038,0.400414 0.100763,0.800828 0.05038,0.400413 0.100763,0.800827 0.100763,0.800827 0,0 0.03379,0.28029 0.03379,0.28029 0.01858,0.154159 0.06184,0.451466 0.09612,0.660683 0,0 0.06233,0.380393 0.06233,0.380393"
         style="fill:#fffff1;fill-opacity:1;stroke:#000000;stroke-width:0.2870166;stroke-linecap:round;stroke-linejoin:round;stroke-opacity:1" />
      <path
         inkscape:connector-curvature="0"
         id="path3769"
         d="m 39.28935,41.457403 c 0.146444,0.02917 0.392393,0.05409 0.546552,0.05539 0.202438,0.0017 0.412019,-0.01935 0.611223,-0.05951 0.21372,-0.04309 0.415493,-0.108165 0.583685,-0.190697 0,0 0.286623,-0.140645 0.286623,-0.140645 0,0 0.350362,-0.204212 0.700723,-0.408423 0.350363,-0.20421 0.700725,-0.408421 0.700725,-0.408421 0,0 0.240248,-0.139083 0.240248,-0.139083 0,0 0.338336,-0.199028 0.753326,-0.443147 0.242937,-0.142909 0.512143,-0.30127 0.755121,-0.444202 0.415249,-0.244271 0.753892,-0.443479 0.753892,-0.443479 0,0 0,-0.04004 0,-0.04004 0,0 -0.42544,-0.177008 -0.850881,-0.354017 -0.425439,-0.177008 -0.850879,-0.354017 -0.850879,-0.354017 0,0 -0.278431,-0.117923 -0.278431,-0.117923 0,0 -0.33562,0.169576 -0.747278,0.377573 -0.240987,0.121763 -0.508032,0.256691 -0.749059,0.378474 -0.411914,0.208125 -0.747838,0.377857 -0.747838,0.377857 0,0 -0.380393,0.172258 -0.380393,0.172258 -0.209217,0.09475 -0.533552,0.243043 -0.720745,0.329557 -0.187193,0.08651 -0.574594,0.25687 -0.86089,0.378569 0,0 -0.520537,0.22127 -0.520537,0.22127 0,0 -0.05549,0.05191 -0.05549,0.05191 0,0 0.22066,0.997977 0.22066,0.997977 0,0 0.171689,0.07487 0.171689,0.07487 0.09443,0.04118 0.291507,0.09873 0.437951,0.127901"
         style="fill:#fffff1;fill-opacity:1;stroke:#000000;stroke-width:0.2870166;stroke-linecap:round;stroke-linejoin:round;stroke-opacity:1" />
      <path
         inkscape:connector-curvature="0"
         id="path3771"
         d="m 50.125332,35.747065 c 0,0 -0.02466,0.295373 -0.02466,0.295373 0,0 0.133058,-0.0812 0.133058,-0.0812 0.07318,-0.04466 0.200629,-0.119019 0.283214,-0.16524 0.08259,-0.04622 0.208715,-0.117545 0.28029,-0.1585 0,0 0.130135,-0.07446 0.130135,-0.07446 0,0 0.500516,-0.291395 0.500516,-0.291395 0.137643,-0.08014 0.31908,-0.185531 0.500517,-0.290783 0.181438,-0.105253 0.362877,-0.210362 0.500518,-0.289922 0,0 0.500517,-0.289307 0.500517,-0.289307 0,0 0.220228,-0.129584 0.220228,-0.129584 0.218948,-0.128831 0.409015,-0.269313 0.575766,-0.428274 0.171784,-0.163758 0.318824,-0.347127 0.4472,-0.557567 0.116881,-0.191594 0.218291,-0.405627 0.308823,-0.647732 0,0 0.08597,-0.229924 0.08597,-0.229924 0,0 0.0044,-0.357885 0.0097,-0.796852 0.0032,-0.256973 0.0066,-0.541733 0.0097,-0.79875 0.0053,-0.439239 0.0097,-0.797448 0.0097,-0.797448 0,0 -0.03326,-0.03326 -0.03326,-0.03326 -0.0183,-0.01829 -0.09609,0.02507 -0.17289,0.09638 0,0 -0.139631,0.129634 -0.139631,0.129634 0,0 -0.330342,0.300564 -0.660683,0.60113 -0.330342,0.300566 -0.660682,0.601131 -0.660682,0.601131 0,0 -0.400414,0.34023 -0.400414,0.34023 -0.220228,0.187128 -0.544563,0.456676 -0.720745,0.598998 0,0 -0.320331,0.258766 -0.320331,0.258766 0,0 -0.160165,0.132407 -0.160165,0.132407 0,0 -0.803485,0.63543 -0.803485,0.63543 0,0 -0.206725,0.135451 -0.206725,0.135451 0,0 -0.04661,0.569538 -0.04661,0.569538 -0.02564,0.313246 -0.06334,0.749725 -0.08379,0.969951 -0.02045,0.220228 -0.04828,0.533333 -0.06184,0.695788"
         style="fill:#fffff1;fill-opacity:1;stroke:#000000;stroke-width:0.2870166;stroke-linecap:round;stroke-linejoin:round;stroke-opacity:1" />
      <path
         inkscape:connector-curvature="0"
         id="path3773"
         d="m 26.217146,34.055112 c 0.132516,0.09643 0.25391,0.175318 0.269765,0.175318 0,0 0.02882,0 0.02882,0 0,0 0.270523,-0.370383 0.270523,-0.370383 0.153104,-0.209621 0.338257,-0.449701 0.535678,-0.696316 0.181638,-0.226897 0.373661,-0.459326 0.560665,-0.678653 0.207825,-0.243749 0.409451,-0.471318 0.583735,-0.657131 0.274233,-0.292377 0.48046,-0.510782 0.657077,-0.694939 0.246935,-0.257475 0.435992,-0.448005 0.672111,-0.680153 0,0 0.450467,-0.442891 0.450467,-0.442891 0,0 0,-0.0431 0,-0.0431 0,-0.02371 -0.04054,-0.07713 -0.09009,-0.118699 -0.254388,-0.213453 -0.492813,-0.419071 -0.724355,-0.625214 -0.238818,-0.212619 -0.470316,-0.425797 -0.704459,-0.648702 -0.222547,-0.211868 -0.447484,-0.432523 -0.683369,-0.669844 0,0 -0.580599,-0.584134 -0.580599,-0.584134 0,0 -0.342125,-0.378882 -0.342125,-0.378882 -0.213954,-0.23694 -0.424129,-0.482991 -0.626311,-0.732629 -0.205037,-0.253162 -0.401854,-0.510015 -0.586058,-0.764797 -0.196087,-0.271221 -0.377881,-0.540095 -0.540081,-0.799674 0,0 -0.247846,-0.396648 -0.247846,-0.396648 0,0 0,0.39059 0,0.999171 0,0.290232 0,0.630044 0,1.000712 0,0.31475 0,0.651747 0,0.999533 0,0.327098 0,0.663739 0,1.000386 0,0.336506 0,0.67302 0,1.000016 0,0.34818 0,0.68557 0,1.000672 0,0.370035 0,0.709333 0,0.999277 0,0.609759 0,1.00123 0,1.00123 0,0 0.07446,0.260142 0.07446,0.260142 0.08291,0.289647 0.222811,0.586319 0.394081,0.851235 0.183751,0.28422 0.403604,0.531885 0.627908,0.695099"
         style="fill:#fffff1;fill-opacity:1;stroke:#000000;stroke-width:0.2870166;stroke-linecap:round;stroke-linejoin:round;stroke-opacity:1" />
      <path
         inkscape:connector-curvature="0"
         id="path3775"
         d="m 54.525268,18.534009 -0.417414,0.06198 c -0.333991,0.04955 -0.6629,0.103858 -0.986328,0.162092 -0.332025,0.05978 -0.658181,0.123917 -0.978913,0.192816 -0.329766,0.07084 -0.65385,0.146277 -0.971495,0.226718 -0.327729,0.083 -0.648922,0.171157 -0.963549,0.264327 l -0.481509,0.142493 -0.139846,0.0392 c -0.07708,0.0215 -0.153369,0.05155 -0.169509,0.06674 l -0.02966,0.02754 0.09958,0.505348 0.09959,0.505347 c 0.03978,0.202189 0.08734,0.465391 0.136667,0.751664 0.04178,0.242521 0.08479,0.501415 0.125013,0.753783 0.04282,0.268649 0.08239,0.529752 0.114417,0.755372 l 0.08899,0.625592 0.08846,0.625063 0.06568,0.74054 0.06568,0.74107 0.0196,0.12978 c 0.01208,0.07997 0.05355,0.147059 0.108063,0.175335 l 0.08793,0.04556 0.586925,0.38828 c 0.189191,0.125126 0.39876,0.263662 0.587983,0.38881 0.323376,0.213875 0.586922,0.388282 0.586922,0.388282 l 0.04026,0.04767 0.400464,0.285514 c 0.220228,0.156886 0.580698,0.421778 0.800926,0.588512 l 0.400466,0.302997 0.08158,0.0021 0.618706,-0.622413 v -0.930707 -0.930708 -0.929648 -0.930707 -0.930178 -0.931767 -0.930708 -0.930707 -0.932297 -0.930708 z"
         style="fill:#fffff1;fill-opacity:1;stroke:#000000;stroke-width:0.28701657;stroke-linecap:round;stroke-linejoin:round;stroke-opacity:1" />
      <path
         inkscape:connector-curvature="0"
         id="path3777"
         d="m 35.191102,39.261861 c 0,0 0.440455,0.251783 0.440455,0.251783 0,0 0.06406,0.0023 0.06406,0.0023 0,0 0.71675,-0.250287 0.71675,-0.250287 0,0 0,-0.0792 0,-0.0792 0,0 -0.06909,-0.463194 -0.13818,-0.926388 -0.06909,-0.463195 -0.138181,-0.926388 -0.138181,-0.926388 0,0 -0.04275,-0.318639 -0.04275,-0.318639 -0.02348,-0.175027 -0.05388,-0.435538 -0.08875,-0.758638 -0.02436,-0.22572 -0.05091,-0.481987 -0.07881,-0.760994 -0.02385,-0.238571 -0.04871,-0.49377 -0.07403,-0.760715 0,0 -0.07563,-0.797124 -0.07563,-0.797124 0,0 -0.0742,-0.04745 -0.0742,-0.04745 0,0 -0.695109,-0.440456 -0.695109,-0.440456 0,0 -0.278784,-0.191623 -0.62073,-0.426662 -0.200186,-0.137634 -0.422009,-0.290104 -0.622219,-0.42772 C 33.421618,32.360098 33.14258,32.1683 33.14258,32.1683 c 0,0 -0.411579,-0.300309 -0.411579,-0.300309 -0.226369,-0.165171 -0.518943,-0.385913 -0.650163,-0.490539 -0.13122,-0.104626 -0.270248,-0.207176 -0.308952,-0.227889 0,0 -0.07037,-0.03766 -0.07037,-0.03766 0,0 -0.227669,0.229845 -0.506918,0.511764 -0.163475,0.165037 -0.344625,0.347919 -0.508126,0.512984 -0.279424,0.282094 -0.507299,0.512148 -0.507299,0.512148 0,0 -0.258919,0.28029 -0.258919,0.28029 -0.141821,0.153526 -0.317933,0.350945 -0.485567,0.543095 -0.187029,0.214383 -0.363505,0.422211 -0.470026,0.555212 -0.07708,0.09624 -0.18698,0.230846 -0.244223,0.299124 -0.05724,0.06828 -0.214906,0.274355 -0.350362,0.45795 0,0 -0.246284,0.333808 -0.246284,0.333808 0,0 0,0.03275 0,0.03275 0,0.01801 0.103607,0.09236 0.230237,0.165215 0.126632,0.07285 0.266276,0.153313 0.310322,0.178796 0,0 0.08009,0.04633 0.08009,0.04633 0,0 0.400413,0.230522 0.400413,0.230522 0.220228,0.126788 0.481497,0.276367 0.5806,0.3324 0,0 0.180186,0.101881 0.180186,0.101881 0,0 0.266073,0.156737 0.532145,0.313474 0.266072,0.156738 0.532144,0.313475 0.532144,0.313475 0,0 0.01922,0 0.01922,0 0.01057,0 0.09157,0.04567 0.179987,0.101491 0,0 0.160767,0.101491 0.160767,0.101491 0,0 0.307977,0.177023 0.68573,0.394154 0.221138,0.127109 0.466188,0.267962 0.687364,0.395093 0.377987,0.217265 0.686243,0.394449 0.686243,0.394449 0,0 0.680703,0.395144 0.680703,0.395144 0.171838,0.09975 0.371091,0.215045 0.559816,0.323992 0.222454,0.128417 0.430282,0.248014 0.561343,0.322934"
         style="fill:#fffff1;fill-opacity:1;stroke:#000000;stroke-width:0.2870166;stroke-linecap:round;stroke-linejoin:round;stroke-opacity:1" />
      <path
         inkscape:connector-curvature="0"
         id="path3779"
         d="m 31.317437,28.674688 c 0.09354,0.08259 0.186583,0.150156 0.206768,0.150156 0.02018,0 0.132749,-0.08583 0.250143,-0.190726 0.184979,-0.165291 0.419984,-0.36721 0.679542,-0.584723 0.218538,-0.183138 0.454481,-0.377331 0.69263,-0.570027 0.237219,-0.191945 0.476627,-0.382404 0.703196,-0.558971 0,0 0.460476,-0.358851 0.460476,-0.358851 0,0 0.350362,-0.261029 0.700724,-0.522059 0.350362,-0.26103 0.700724,-0.522059 0.700724,-0.522059 0,0 0.655406,-0.466719 0.655406,-0.466719 0,0 0.04604,-0.490272 0.04604,-0.490272 0,0 0.06158,-0.640662 0.06158,-0.640662 0.02583,-0.268802 0.05523,-0.549405 0.08642,-0.827237 0.03178,-0.283113 0.06542,-0.563346 0.09905,-0.825283 0.03964,-0.30875 0.07925,-0.592077 0.115769,-0.824727 0,0 0.08088,-0.515219 0.08088,-0.515219 0,0 -0.03871,-0.03871 -0.03871,-0.03871 0,0 -0.652963,-0.196694 -0.652963,-0.196694 -0.188682,-0.05684 -0.466323,-0.135282 -0.756059,-0.214303 -0.261732,-0.07139 -0.533336,-0.143234 -0.758153,-0.200052 0,0 -0.861251,-0.217663 -0.861251,-0.217663 0,0 -0.200207,-0.03746 -0.200207,-0.03746 0,0 -0.620641,-0.125808 -0.620641,-0.125808 -0.304685,-0.06176 -0.613157,-0.116167 -0.921033,-0.162931 -0.3119,-0.04738 -0.623187,-0.0869 -0.9293,-0.118302 -0.318746,-0.03269 -0.631885,-0.05655 -0.934266,-0.07126 -0.326756,-0.01589 -0.640952,-0.02109 -0.936092,-0.01517 -0.339784,0.0068 -0.654311,0.02836 -0.93367,0.0653 -0.318077,0.04205 -0.607215,0.105645 -0.863866,0.188709 -0.315286,0.102044 -0.581545,0.233454 -0.792201,0.390368 -0.263435,0.196228 -0.439914,0.432334 -0.516573,0.700741 -0.06266,0.219409 -0.08336,0.474766 -0.06329,0.745115 0.01771,0.238543 0.06718,0.488759 0.147571,0.73625 0,0 0.06591,0.202927 0.06591,0.202927 0,0 0.231406,0.480496 0.231406,0.480496 0.132911,0.275981 0.295305,0.566677 0.483745,0.867783 0.167019,0.266877 0.354498,0.541932 0.560044,0.822167 0.188809,0.257415 0.392861,0.5192 0.610303,0.78303 0.205467,0.249303 0.422889,0.500432 0.650701,0.751428 0.219005,0.241292 0.447612,0.482461 0.68443,0.721765 0.230431,0.232848 0.468635,0.463931 0.713333,0.691642 0,0 0.560579,0.521665 0.560579,0.521665 0,0 0.180409,0.163095 0.180409,0.163095 0.09923,0.0897 0.25694,0.230664 0.350478,0.313249"
         style="fill:#fffff1;fill-opacity:1;stroke:#000000;stroke-width:0.2870166;stroke-linecap:round;stroke-linejoin:round;stroke-opacity:1" />
      <path
         inkscape:connector-curvature="0"
         id="path3781"
         d="m 47.586013,22.694383 c -0.07006,-0.0026 -0.140656,-1.27e-4 -0.210296,0.0079 -0.273172,0.03166 -0.537366,0.146637 -0.749016,0.35279 -0.234928,0.228827 -0.340744,0.424461 -0.404699,0.749545 -0.06835,0.347402 0.0095,0.693786 0.193345,0.976263 0.179522,0.275933 0.46009,0.490967 0.805165,0.587453 0.113124,0.03163 0.282301,0.0425 0.442841,0.02808 0.23659,-0.02127 0.464505,-0.109258 0.661612,-0.248436 0.190299,-0.13437 0.352146,-0.316529 0.466148,-0.533422 0.07629,-0.145155 0.09153,-0.237564 0.0927,-0.554611 0.0012,-0.337183 -0.01132,-0.406238 -0.110712,-0.608641 -0.1306,-0.265954 -0.338231,-0.467022 -0.580565,-0.594869 -0.187897,-0.09913 -0.396328,-0.15427 -0.606524,-0.162093 z"
         style="fill:#fffff1;fill-opacity:1;stroke:#000000;stroke-width:0.28701657;stroke-linecap:round;stroke-linejoin:round;stroke-opacity:1" />
      <path
         inkscape:connector-curvature="0"
         id="path3783"
         d="m 41.998136,35.676866 c 0,0 0.280289,0.138844 0.560579,0.277689 0.280289,0.138844 0.560579,0.277688 0.560579,0.277688 0,0 0.01733,2.55e-4 0.01733,2.55e-4 0,0 0.53189,-0.295025 0.53189,-0.295025 0.146841,-0.08145 0.34157,-0.190738 0.536715,-0.301037 0.193625,-0.109442 0.387661,-0.219878 0.535735,-0.305099 0,0 0.540558,-0.311112 0.540558,-0.311112 0,0 0.200207,-0.136534 0.200207,-0.136534 0,0 0.260269,-0.156442 0.520538,-0.312883 0.260269,-0.156441 0.520538,-0.312882 0.520538,-0.312882 0,0 0.281447,-0.187343 0.62666,-0.417131 0.202089,-0.134519 0.426031,-0.283583 0.628154,-0.418126 0.345427,-0.22993 0.62713,-0.417443 0.62713,-0.417443 0,0 0.180187,-0.130711 0.180187,-0.130711 0.147525,-0.107017 0.185529,-0.161095 0.20966,-0.298339 0,0 0.02947,-0.167629 0.02947,-0.167629 0,0 0.0043,-0.353173 0.01056,-0.85672 0.0032,-0.255801 0.0068,-0.550406 0.01057,-0.857231 0.0035,-0.281912 0.0071,-0.574139 0.01056,-0.856064 0.0038,-0.306931 0.0074,-0.601648 0.01057,-0.857542 0.0063,-0.503627 0.01057,-0.85687 0.01057,-0.85687 0,0 -0.02374,-0.490507 -0.04749,-0.981015 -0.02374,-0.490506 -0.04749,-0.981013 -0.04749,-0.981013 0,0 -0.04443,-0.330461 -0.04443,-0.330461 0,0 -0.170493,0.09529 -0.170493,0.09529 -0.111402,0.06226 -0.298173,0.126575 -0.489986,0.175061 -0.18884,0.04774 -0.382566,0.08013 -0.514072,0.08013 -0.288988,0 -0.575759,-0.06158 -0.839436,-0.175709 -0.263678,-0.114127 -0.504262,-0.280802 -0.700881,-0.490988 -0.234304,-0.250471 -0.480728,-0.670715 -0.480801,-0.819942 -1.8e-5,-0.03585 -0.02283,-0.08409 -0.0507,-0.107216 0,0 -0.05066,-0.04205 -0.05066,-0.04205 0,0 -0.289842,-0.144585 -0.645352,-0.321927 -0.208116,-0.103817 -0.438737,-0.21886 -0.646889,-0.322694 -0.35573,-0.177452 -0.645835,-0.322168 -0.645835,-0.322168 0,0 -0.04,0 -0.04,0 0,0 -0.734942,-0.360372 -0.734942,-0.360372 0,0 -0.0143,0 -0.0143,0 -0.0079,0 -0.0143,0.06829 -0.0143,0.151753 0,0.235109 -0.06859,0.50173 -0.18576,0.755311 -0.11007,0.238211 -0.263013,0.464917 -0.442243,0.643181 -0.158875,0.158018 -0.300724,0.273273 -0.454714,0.362522 -0.157642,0.09136 -0.328006,0.155473 -0.54238,0.210301 -0.251272,0.06426 -0.452263,0.08865 -0.660526,0.06851 -0.192605,-0.01864 -0.391428,-0.07535 -0.641995,-0.173846 0,0 -0.264866,-0.104113 -0.264866,-0.104113 0,0 -0.283036,0.189882 -0.630198,0.422784 -0.203231,0.136341 -0.428437,0.287427 -0.631701,0.423792 -0.347378,0.233047 -0.630672,0.423101 -0.630672,0.423101 0,0 -5e-6,0.02002 -5e-6,0.02002 -3e-6,0.01101 0.10356,0.07347 0.230138,0.138787 0.246844,0.127385 0.473719,0.328232 0.6562,0.570653 0.174806,0.232223 0.308873,0.502596 0.380732,0.783088 0.04268,0.166619 0.05694,0.395546 0.04603,0.621755 -0.01109,0.229771 -0.04815,0.456735 -0.107774,0.612746 -0.09576,0.250569 -0.244088,0.486041 -0.425348,0.685145 -0.187747,0.206227 -0.410831,0.373436 -0.647445,0.477983 0,0 -0.303276,0.134002 -0.303276,0.134002 0,0 0.01288,0.490506 0.02575,0.981013 0.01288,0.490506 0.02575,0.981014 0.02575,0.981014 0,0 0.05148,0.787946 0.05148,0.787946 0,0 0.143902,0.08968 0.143902,0.08968 0.153837,0.09587 0.318486,0.196214 0.509646,0.31045 0.152259,0.09098 0.321336,0.190789 0.515167,0.304161 0,0 0.440455,0.257623 0.440455,0.257623 0,0 0.86089,0.481542 0.86089,0.481542 0.173859,0.09725 0.404135,0.221701 0.656482,0.355389 0.211502,0.11205 0.43851,0.230588 0.660802,0.345036 0.234791,0.120882 0.46432,0.237202 0.664763,0.336493"
         style="fill:#fffff1;fill-opacity:1;stroke:#000000;stroke-width:0.2870166;stroke-linecap:round;stroke-linejoin:round;stroke-opacity:1" />
      <path
         inkscape:connector-curvature="0"
         id="path3785"
         d="m 40.58902,21.92365 c -0.2659,-0.0048 -0.348745,0.01059 -0.553021,0.105942 -0.290228,0.135476 -0.550072,0.378604 -0.693924,0.6489 -0.09378,0.176224 -0.106302,0.24574 -0.106473,0.580567 -1.68e-4,0.334827 0.01307,0.407687 0.110709,0.606522 0.0967,0.19689 0.2446,0.368224 0.422182,0.498461 0.178283,0.130747 0.386401,0.219808 0.602816,0.251614 0.101952,0.01499 0.27989,0.01478 0.395695,-5.29e-4 0.220038,-0.0291 0.42503,-0.11299 0.599637,-0.240491 0.172573,-0.126014 0.315885,-0.294424 0.414767,-0.495282 0.108607,-0.220616 0.1268,-0.302106 0.128189,-0.568913 0.0014,-0.282749 -0.06185,-0.533071 -0.185399,-0.743189 -0.126971,-0.215943 -0.317727,-0.389619 -0.566793,-0.512233 -0.214953,-0.105821 -0.305546,-0.12658 -0.568385,-0.131369 z"
         style="fill:#fffff1;fill-opacity:1;stroke:#000000;stroke-width:0.28701657;stroke-linecap:round;stroke-linejoin:round;stroke-opacity:1" />
      <path
         inkscape:connector-curvature="0"
         id="path3787"
         d="m 37.135811,24.039899 c 0,0 -0.02722,0.256236 -0.02722,0.256236 -0.02265,0.21326 -0.01785,0.250729 0.02868,0.2234 0,0 0.0559,-0.03284 0.0559,-0.03284 0,0 0.314156,-0.207429 0.628312,-0.414859 0.314155,-0.207429 0.628311,-0.414858 0.628311,-0.414858 0,0 -7.62e-4,-0.371185 -7.62e-4,-0.371185 -5.7e-4,-0.277873 0.03856,-0.521673 0.123159,-0.746628 0.08559,-0.227606 0.217738,-0.435919 0.402401,-0.640711 0,0 0.161782,-0.179416 0.161782,-0.179416 0,0 -0.130733,-0.04734 -0.130733,-0.04734 -0.0719,-0.02604 -0.28389,-0.104615 -0.471083,-0.174619 -0.187193,-0.07 -0.486354,-0.177647 -0.6648,-0.239203 0,0 -0.324448,-0.111921 -0.324448,-0.111921 0,0 -0.104997,0.626121 -0.104997,0.626121 -0.03034,0.180927 -0.07017,0.446533 -0.109105,0.723372 -0.03517,0.25008 -0.0696,0.509327 -0.09565,0.723597 0,0 -0.09975,0.820848 -0.09975,0.820848"
         style="fill:#fffff1;fill-opacity:1;stroke:#000000;stroke-width:0.2870166;stroke-linecap:round;stroke-linejoin:round;stroke-opacity:1" />
      <path
         inkscape:connector-curvature="0"
         id="path3789"
         d="m 47.978533,20.179301 -0.387223,0.143553 c -0.213171,0.07889 -0.451044,0.166645 -0.528123,0.194934 l -0.139846,0.05138 -0.640954,0.279159 c -0.32033,0.139619 -0.640424,0.279159 -0.640424,0.279159 l -0.280218,0.127132 c -0.154158,0.06976 -0.491635,0.229408 -0.750074,0.354908 l -0.470387,0.228307 0.02119,0.06621 c 0,0 0.410118,0.205971 0.819998,0.411588 l 0.819469,0.411058 0.0821,0.01165 0.22248,-0.229896 c 0.138603,-0.143475 0.274365,-0.252023 0.429599,-0.337958 0.146971,-0.08136 0.311196,-0.142335 0.510644,-0.193346 0.386704,-0.0989 0.643785,-0.100333 0.988446,-0.0048 0.309129,0.08572 0.302403,0.09347 0.229897,-0.261678 -0.0217,-0.106289 -0.06767,-0.373582 -0.102237,-0.59381 -0.03456,-0.220227 -0.09004,-0.521331 -0.123421,-0.669029 z"
         style="fill:#fffff1;fill-opacity:1;stroke:#000000;stroke-width:0.28701657;stroke-linecap:round;stroke-linejoin:round;stroke-opacity:1" />
      <path
         inkscape:connector-curvature="0"
         id="path3791"
         d="m 49.13981,18.603188 c 0,0 0.02734,0.145697 0.02734,0.145697 0.01504,0.08013 0.04052,0.145698 0.05663,0.145698 0,0 0.02931,0 0.02931,0 0,0 0.944347,-0.323096 0.944347,-0.323096 0,0 0.845465,-0.254968 0.845465,-0.254968 0.304185,-0.09173 0.625237,-0.182993 0.947802,-0.269892 0.322071,-0.08677 0.645652,-0.169188 0.955457,-0.243395 0.345652,-0.08279 0.674159,-0.155363 0.964295,-0.212338 0,0 0.540559,-0.10615 0.540559,-0.10615 0,0 0.03675,-0.03457 0.03675,-0.03457 0.0515,-0.04842 -0.03355,-0.312879 -0.229088,-0.712274 -0.09011,-0.184071 -0.231437,-0.38828 -0.388713,-0.571953 -0.166119,-0.194 -0.350038,-0.365088 -0.510222,-0.465338 0,0 -0.190054,-0.118944 -0.190054,-0.118944 0,0 -0.480497,-0.280053 -0.480497,-0.280053 -0.136782,-0.07972 -0.330683,-0.192214 -0.53021,-0.307674 -0.185973,-0.107617 -0.376834,-0.217811 -0.530886,-0.306451 -0.144073,-0.0829 -0.307504,-0.177075 -0.460689,-0.265451 -0.186344,-0.107504 -0.357527,-0.206422 -0.460263,-0.266005 0,0 -0.340352,-0.197385 -0.340352,-0.197385 0,0 -0.400413,-0.230578 -0.800827,-0.461156 -0.400414,-0.230578 -0.800828,-0.461156 -0.800828,-0.461156 0,0 -0.240248,-0.138983 -0.240248,-0.138983 -0.132136,-0.07644 -0.321333,-0.184424 -0.420434,-0.239963 0,0 -0.180187,-0.100978 -0.180187,-0.100978 0,0 -0.286802,-0.1691 -0.573602,-0.3382 -0.2868,-0.1691 -0.573601,-0.3382 -0.573601,-0.3382 0,0 -0.01477,0.01477 -0.01477,0.01477 -0.0081,0.0081 0.04291,0.131396 0.113396,0.273941 0.06748,0.136464 0.161071,0.333698 0.255552,0.537419 0.08806,0.189883 0.176902,0.385402 0.246098,0.542601 0,0 0.07932,0.180186 0.07932,0.180186 0,0 0.239615,0.600621 0.239615,0.600621 0.122716,0.307601 0.240957,0.620353 0.355994,0.942171 0.110245,0.308414 0.217549,0.625155 0.323031,0.953671 0.09941,0.309619 0.197211,0.629698 0.294327,0.963121 0.09052,0.310777 0.180449,0.633146 0.270545,0.969447 0,0 0.19965,0.745223 0.19965,0.745223"
         style="fill:#fffff1;fill-opacity:1;stroke:#000000;stroke-width:0.2870166;stroke-linecap:round;stroke-linejoin:round;stroke-opacity:1" />
      <path
         inkscape:connector-curvature="0"
         id="path3793"
         d="m 42.498654,21.139601 c 0,0 0.780806,0.349424 0.780806,0.349424 0,0 0.05137,0.0082 0.05137,0.0082 0,0 0.895267,-0.451936 0.895267,-0.451936 0.243313,-0.122825 0.55936,-0.276812 0.873979,-0.426656 0.322079,-0.153397 0.64266,-0.302454 0.882179,-0.409297 0,0 0.86089,-0.384017 0.86089,-0.384017 0,0 0.245216,-0.09755 0.490431,-0.195113 0.245216,-0.09755 0.490432,-0.195113 0.490432,-0.195113 0,0 1.5e-4,-0.09139 1.5e-4,-0.09139 0,0 -0.1104,-0.437628 -0.220801,-0.875257 -0.110401,-0.437628 -0.220802,-0.875256 -0.220802,-0.875256 0,0 -0.114951,-0.420434 -0.114951,-0.420434 -0.08033,-0.293825 -0.176741,-0.616628 -0.283407,-0.951067 -0.09843,-0.308598 -0.205581,-0.627103 -0.316906,-0.94189 -0.112637,-0.318497 -0.22954,-0.633188 -0.345978,-0.92996 0,0 -0.188522,-0.480497 -0.188522,-0.480497 0,0 -0.142448,-0.320331 -0.142448,-0.320331 0,0 -0.208641,-0.457012 -0.208641,-0.457012 -0.118651,-0.259852 -0.250653,-0.525284 -0.389115,-0.784383 -0.140909,-0.263679 -0.288509,-0.520798 -0.435541,-0.758854 -0.167949,-0.271923 -0.335154,-0.518972 -0.4908,-0.722514 -0.216479,-0.283096 -0.524638,-0.620642 -0.566608,-0.620642 0,0 -0.02955,0 -0.02955,0 0,0 -0.777669,-0.4529179 -0.777669,-0.4529179 0,0 -0.211198,0.066574 -0.211198,0.066574 -0.236488,0.074546 -0.503379,0.2568229 -0.788405,0.5311469 -0.202733,0.195122 -0.414642,0.436813 -0.631312,0.719429 -0.180086,0.234897 -0.36346,0.498065 -0.54759,0.786264 -0.163413,0.255774 -0.32742,0.531263 -0.49025,0.824202 -0.149413,0.268803 -0.297837,0.552297 -0.4439,0.848736 0,0 -0.345265,0.700724 -0.345265,0.700724 0,0 -0.188251,0.440455 -0.188251,0.440455 0,0 -0.117935,0.295317 -0.235871,0.590633 -0.117935,0.295316 -0.23587,0.590632 -0.23587,0.590632 0,0 -0.29818,0.88135 -0.29818,0.88135 -0.08136,0.240478 -0.180751,0.554521 -0.275645,0.867715 -0.09639,0.318124 -0.188133,0.635371 -0.251625,0.87375 0,0 -0.229091,0.860114 -0.229091,0.860114 0,0 0.04335,0.04335 0.04335,0.04335 0,0 0.586365,0.198548 0.586365,0.198548 0.240098,0.0813 0.510763,0.177774 0.799631,0.284528 0.253647,0.09374 0.52133,0.195405 0.794675,0.301683 0.260583,0.101317 0.526314,0.206826 0.78994,0.313656 0.266324,0.107924 0.5305,0.217195 0.785053,0.324856 0.274173,0.115961 0.537181,0.230049 0.77968,0.338572"
         style="fill:#fffff1;fill-opacity:1;stroke:#000000;stroke-width:0.2870166;stroke-linecap:round;stroke-linejoin:round;stroke-opacity:1" />
      <path
         inkscape:connector-curvature="0"
         id="path3795"
         d="m 25.121879,17.633279 c 0,0 -2.96e-4,0.366925 -5.91e-4,0.733851 -2.96e-4,0.366925 -5.92e-4,0.733851 -5.92e-4,0.733851 0,0 0.210217,-0.17505 0.210217,-0.17505 0.34632,-0.288384 0.474749,-0.373003 0.851525,-0.561047 0.207902,-0.103761 0.424803,-0.193648 0.656459,-0.271281 0.214111,-0.07175 0.440826,-0.13304 0.684689,-0.18514 0.218573,-0.04669 0.450921,-0.08601 0.700316,-0.118868 0,0 0.520539,-0.06858 0.520539,-0.06858 0,0 0.430445,0.0021 0.860889,0.0041 0.430444,0.0021 0.860889,0.0041 0.860889,0.0041 0,0 0.440456,0.04315 0.440456,0.04315 0.319328,0.03129 0.610282,0.06282 0.886691,0.09713 0.306267,0.03801 0.594673,0.07943 0.884027,0.127701 0.285676,0.04765 0.572274,0.101983 0.877894,0.166304 0.271028,0.05703 0.557017,0.121933 0.870586,0.196993 0.266024,0.06368 0.551899,0.134674 0.865333,0.214397 0,0 0.620641,0.157862 0.620641,0.157862 0,0 0.260269,0.07779 0.260269,0.07779 0.143148,0.04279 0.413427,0.123879 0.60062,0.180204 0,0 0.340352,0.102413 0.340352,0.102413 0,0 0.08835,0.0016 0.08835,0.0016 0,0 0.14116,-0.740765 0.14116,-0.740765 0,0 0.178091,-0.720745 0.178091,-0.720745 0.07368,-0.298195 0.147981,-0.585723 0.224097,-0.866394 0.07941,-0.292825 0.160805,-0.578188 0.245546,-0.860423 0.08601,-0.286486 0.175482,-0.569749 0.269827,-0.854321 0.09257,-0.279209 0.189834,-0.559679 0.293147,-0.845688 0.09858,-0.27291 0.202672,-0.550864 0.313443,-0.83758 0,0 0.100548,-0.26027 0.100548,-0.26027 0,0 0.239987,-0.527392 0.239987,-0.527392 0.109302,-0.240203 0.221509,-0.473803 0.335789,-0.699366 0.120299,-0.237443 0.242895,-0.465981 0.366819,-0.683941 0.132992,-0.233905 0.267513,-0.455628 0.402369,-0.663102 0.149283,-0.229673 0.298975,-0.441883 0.447451,-0.6338274 0,0 0.117259,-0.1515888 0.117259,-0.1515888 0,0 0.195202,-0.1976509 0.390403,-0.3953018 0.195208,-0.1976663 0.39041,-0.3953172 0.39041,-0.3953172 0,0 0,-0.026891 0,-0.026891 0,0 -0.31703,-0.1858627 -0.31703,-0.1858627 C 41.160989,8.6406391 41.004831,8.5624889 40.84768,8.50232 40.681693,8.4387682 40.514598,8.3952766 40.317409,8.3609375 c -0.171606,-0.029884 -0.403678,-0.037066 -0.635251,-0.02475 -0.229771,0.012221 -0.459051,0.043638 -0.62829,0.091124 0,0 -0.25177,0.070643 -0.25177,0.070643 0,0 -0.33643,0.1933336 -0.749081,0.4304692 -0.241569,0.1388204 -0.509258,0.2926517 -0.750866,0.4314953 -0.412907,0.237283 -0.749642,0.4307921 -0.749642,0.4307921 0,0 -0.800828,0.4624589 -0.800828,0.4624589 -0.210764,0.121712 -0.46895,0.270942 -0.719371,0.415771 -0.272908,0.157835 -0.536595,0.310444 -0.719636,0.416517 -0.175499,0.101706 -0.407398,0.235775 -0.639638,0.369854 -0.23224,0.134077 -0.464821,0.268162 -0.641686,0.369889 -0.246007,0.141495 -0.489399,0.281698 -0.729599,0.420272 -0.246417,0.142163 -0.489475,0.282612 -0.72855,0.420989 -0.246664,0.142769 -0.489088,0.283334 -0.726588,0.421295 0,0 -0.500517,0.290747 -0.500517,0.290747 0,0 -0.240249,0.138077 -0.240249,0.138077 0,0 -0.320331,0.185471 -0.640662,0.370941 -0.320331,0.185471 -0.640662,0.370941 -0.640662,0.370941 0,0 -0.281447,0.162232 -0.62666,0.36122 -0.20209,0.116488 -0.426031,0.245572 -0.628155,0.362079 -0.345427,0.199112 -0.62713,0.361491 -0.62713,0.361491 0,0 -0.120123,0.06844 -0.120123,0.06844 -0.260452,0.148388 -0.446785,0.261001 -0.593313,0.364484 -0.215898,0.152476 -0.345377,0.285132 -0.498189,0.483205 -0.108577,0.140737 -0.224365,0.335423 -0.323023,0.534517 -0.10299,0.207837 -0.187313,0.420476 -0.225281,0.581559 0,0 -0.06077,0.257822 -0.06077,0.257822"
         style="fill:#fffff1;fill-opacity:1;stroke:#000000;stroke-width:0.2870166;stroke-linecap:round;stroke-linejoin:round;stroke-opacity:1" />
      <path
         transform="scale(0.26458333)"
         inkscape:connector-curvature="0"
         id="path881"
         d="m 138.47892,70.927692 c -2.14524,-0.69339 -10.9442,-2.82026 -13.77754,-3.330285 -8.95821,-1.612543 -16.26691,-1.6964 -21.93633,-0.251693 -2.10619,0.536708 -5.205369,1.917425 -6.471405,2.883078 l -0.814725,0.62142 0.0068,-0.575223 c 0.06167,-5.237137 1.4587,-8.405442 4.59574,-10.422625 1.2394,-0.796957 28.62337,-16.657909 43.57492,-25.238843 3.13086,-1.79685 3.77754,-2.072277 5.4493,-2.32092 2.25881,-0.335956 3.92566,-0.07483 5.99721,0.93951 l 1.37857,0.675019 -1.59474,1.651866 c -3.93364,4.074543 -8.00029,12.100462 -11.24249,22.188091 -1.176,3.658982 -3.41528,12.24614 -3.41528,13.096897 0,0.56251 -0.23404,0.573705 -1.75,0.08371 z"
         style="fill:#401f4c;fill-opacity:1;stroke:none;stroke-width:0.26449999;stroke-miterlimit:4;stroke-dasharray:none;opacity:0" />
      <path
         transform="scale(0.26458333)"
         inkscape:connector-curvature="0"
         id="path883"
         d="m 138.47892,70.927692 c -2.14524,-0.69339 -10.9442,-2.82026 -13.77754,-3.330285 -8.95821,-1.612543 -16.26691,-1.6964 -21.93633,-0.251693 -2.10619,0.536708 -5.205369,1.917425 -6.471405,2.883078 l -0.814725,0.62142 0.0068,-0.575223 c 0.06167,-5.237137 1.4587,-8.405442 4.59574,-10.422625 1.2394,-0.796957 28.62337,-16.657909 43.57492,-25.238843 3.13086,-1.79685 3.77754,-2.072277 5.4493,-2.32092 2.25881,-0.335956 3.92566,-0.07483 5.99721,0.93951 l 1.37857,0.675019 -1.59474,1.651866 c -3.93364,4.074543 -8.00029,12.100462 -11.24249,22.188091 -1.176,3.658982 -3.41528,12.24614 -3.41528,13.096897 0,0.56251 -0.23404,0.573705 -1.75,0.08371 z"
         style="opacity:0;fill:#401f4c;fill-opacity:1;stroke:none;stroke-width:0.26449999;stroke-miterlimit:4;stroke-dasharray:none" />
      <path
         transform="scale(0.26458333)"
         inkscape:connector-curvature="0"
         id="path885"
         d="m 138.47892,70.927692 c -2.14524,-0.69339 -10.9442,-2.82026 -13.77754,-3.330285 -8.95821,-1.612543 -16.26691,-1.6964 -21.93633,-0.251693 -2.10619,0.536708 -5.205369,1.917425 -6.471405,2.883078 l -0.814725,0.62142 0.0068,-0.575223 c 0.06167,-5.237137 1.4587,-8.405442 4.59574,-10.422625 1.2394,-0.796957 28.62337,-16.657909 43.57492,-25.238843 3.13086,-1.79685 3.77754,-2.072277 5.4493,-2.32092 2.25881,-0.335956 3.92566,-0.07483 5.99721,0.93951 l 1.37857,0.675019 -1.59474,1.651866 c -3.93364,4.074543 -8.00029,12.100462 -11.24249,22.188091 -1.176,3.658982 -3.41528,12.24614 -3.41528,13.096897 0,0.56251 -0.23404,0.573705 -1.75,0.08371 z"
         style="opacity:0;fill:#401f4c;fill-opacity:1;stroke:none;stroke-width:0.26449999;stroke-miterlimit:4;stroke-dasharray:none" />
      <path
         transform="scale(0.26458333)"
         inkscape:connector-curvature="0"
         id="path887"
         d="m 170.47892,83.839744 -2.375,-1.209624 2.25,-1.044632 c 3.29447,-1.529562 7.01815,-3.137052 8.89851,-3.841432 l 1.64851,-0.61753 0.41798,2.41162 c 0.22989,1.326392 0.41618,2.472491 0.41399,2.546887 -0.002,0.0744 -0.81962,0.131547 -1.81649,0.127002 -2.24739,-0.01025 -4.10358,0.630772 -5.57371,1.924829 -0.58603,0.515847 -1.16075,0.932188 -1.27715,0.925204 -0.1164,-0.007 -1.28039,-0.55703 -2.58664,-1.222324 z"
         style="opacity:0;fill:#401f4c;fill-opacity:1;stroke:none;stroke-width:0.26449999;stroke-miterlimit:4;stroke-dasharray:none" />
      <path
         transform="scale(0.26458333)"
         inkscape:connector-curvature="0"
         id="path889"
         d="m 160.8953,79.309484 c -3.23008,-1.463572 -11.08615,-4.597307 -14.43498,-5.75802 l -2.39361,-0.82963 0.84044,-3.011032 c 1.21266,-4.34462 2.97105,-9.56906 4.35488,-12.939049 3.82161,-9.30659 9.24323,-17.38844 12.64603,-18.851068 0.76014,-0.326728 0.89241,-0.297128 2.41691,0.540843 0.88702,0.487569 1.99996,1.359382 2.47319,1.937364 4.4999,5.495924 9.1362,16.303172 12.16304,28.352125 0.55974,2.228187 1.01772,4.098915 1.01772,4.15717 0,0.05826 -0.36563,0.250755 -0.8125,0.427775 -2.21829,0.878727 -8.38849,3.70678 -11.71646,5.370125 -2.05633,1.027775 -3.76291,1.860132 -3.79241,1.849687 -0.0295,-0.01045 -1.27251,-0.571277 -2.76225,-1.24629 z"
         style="opacity:0;fill:#401f4c;fill-opacity:1;stroke:none;stroke-width:0.26449999;stroke-miterlimit:4;stroke-dasharray:none" />
      <path
         transform="scale(0.26458333)"
         inkscape:connector-curvature="0"
         id="path891"
         d="m 177.85392,94.909359 c -1.19015,-0.627431 -1.83145,-1.328836 -2.27367,-2.486772 -1.09039,-2.855145 1.05252,-5.905512 4.14867,-5.905512 1.41053,0 2.41771,0.488225 3.46289,1.67862 0.71612,0.815612 0.78711,1.048294 0.78711,2.579737 0,1.376876 -0.1121,1.848234 -0.61585,2.589569 -1.15115,1.694076 -3.81087,2.439665 -5.50915,1.544358 z"
         style="opacity:0;fill:#401f4c;fill-opacity:1;stroke:none;stroke-width:0.26449999;stroke-miterlimit:4;stroke-dasharray:none" />
    </g>
  </g>
</svg>
